# MagicaVoxel @ Ephtracy

# material
mtllib smg000(16,4,16).mtl
usemtl palette

# normals
vn -1 0 0
vn 1 0 0
vn 0 0 1
vn 0 0 -1
vn 0 -1 0
vn 0 1 0

# texcoords
vt 0.986328 0.5
vt 0.994141 0.5

# verts
v -8 3 0.5
v -8 3 -0.5
v -8 7 1.5
v -8 7 0.5
v -8 7 -0.5
v -8 7 -1.5
v -8 10 1.5
v -8 10 0.5
v -8 10 -0.5
v -8 10 -1.5
v -8 11 1.5
v -8 11 0.5
v -8 11 -0.5
v -8 11 -1.5
v -6 8 1.5
v -6 8 0.5
v -6 8 -0.5
v -6 8 -1.5
v -6 9 1.5
v -6 9 0.5
v -6 9 -0.5
v -6 9 -1.5
v -5 6 0.5
v -5 6 -0.5
v -5 7 0.5
v -5 7 -0.5
v -4 8 1.5
v -4 8 0.5
v -4 8 -0.5
v -4 8 -1.5
v -4 9 1.5
v -4 9 0.5
v -4 9 -0.5
v -4 9 -1.5
v -2 0 0.5
v -2 0 -0.5
v -2 7 0.5
v -2 7 -0.5
v -2 8 1.5
v -2 8 0.5
v -2 8 -0.5
v -2 8 -1.5
v -2 9 1.5
v -2 9 0.5
v -2 9 -0.5
v -2 9 -1.5
v 2 3 0.5
v 2 3 -0.5
v 2 7 0.5
v 2 7 -0.5
v 5 10 0.5
v 5 10 -0.5
v 5 11 0.5
v 5 11 -0.5
v -7 8 1.5
v -7 8 0.5
v -7 8 -0.5
v -7 8 -1.5
v -7 9 1.5
v -7 9 0.5
v -7 9 -0.5
v -7 9 -1.5
v -7 10 1.5
v -7 10 0.5
v -7 10 -0.5
v -7 10 -1.5
v -7 11 1.5
v -7 11 0.5
v -7 11 -0.5
v -7 11 -1.5
v -6 3 0.5
v -6 3 -0.5
v -6 5 0.5
v -6 5 -0.5
v -6 6 0.5
v -6 6 -0.5
v -6 7 0.5
v -6 7 -0.5
v -5 8 1.5
v -5 8 0.5
v -5 8 -0.5
v -5 8 -1.5
v -5 9 1.5
v -5 9 0.5
v -5 9 -0.5
v -5 9 -1.5
v -4 5 0.5
v -4 5 -0.5
v -4 7 0.5
v -4 7 -0.5
v -3 8 1.5
v -3 8 0.5
v -3 8 -0.5
v -3 8 -1.5
v -3 9 1.5
v -3 9 0.5
v -3 9 -0.5
v -3 9 -1.5
v 0 0 0.5
v 0 0 -0.5
v 0 7 0.5
v 0 7 -0.5
v 4 3 0.5
v 4 3 -0.5
v 4 7 0.5
v 4 7 -0.5
v 6 7 1.5
v 6 7 -1.5
v 6 8 0.5
v 6 8 -0.5
v 6 9 0.5
v 6 9 -0.5
v 6 10 1.5
v 6 10 0.5
v 6 10 -0.5
v 6 10 -1.5
v 6 11 0.5
v 6 11 -0.5
v 8 8 0.5
v 8 8 -0.5
v 8 9 0.5
v 8 9 -0.5
v -8 7 1.5
v -8 10 1.5
v -8 11 1.5
v -7 8 1.5
v -7 9 1.5
v -7 10 1.5
v -7 11 1.5
v -6 8 1.5
v -6 9 1.5
v -5 8 1.5
v -5 9 1.5
v -4 8 1.5
v -4 9 1.5
v -3 8 1.5
v -3 9 1.5
v -2 8 1.5
v -2 9 1.5
v 6 7 1.5
v 6 10 1.5
v -8 3 0.5
v -8 7 0.5
v -7 8 0.5
v -7 9 0.5
v -6 3 0.5
v -6 5 0.5
v -6 6 0.5
v -6 7 0.5
v -6 8 0.5
v -6 9 0.5
v -5 6 0.5
v -5 7 0.5
v -5 8 0.5
v -5 9 0.5
v -4 5 0.5
v -4 7 0.5
v -4 8 0.5
v -4 9 0.5
v -3 8 0.5
v -3 9 0.5
v -2 0 0.5
v -2 7 0.5
v -2 8 0.5
v -2 9 0.5
v 0 0 0.5
v 0 7 0.5
v 2 3 0.5
v 2 7 0.5
v 4 3 0.5
v 4 7 0.5
v 5 10 0.5
v 5 11 0.5
v 6 8 0.5
v 6 9 0.5
v 6 10 0.5
v 6 11 0.5
v 8 8 0.5
v 8 9 0.5
v -8 10 -0.5
v -8 11 -0.5
v -7 10 -0.5
v -7 11 -0.5
v -8 10 0.5
v -8 11 0.5
v -7 10 0.5
v -7 11 0.5
v -8 3 -0.5
v -8 7 -0.5
v -7 8 -0.5
v -7 9 -0.5
v -6 3 -0.5
v -6 5 -0.5
v -6 6 -0.5
v -6 7 -0.5
v -6 8 -0.5
v -6 9 -0.5
v -5 6 -0.5
v -5 7 -0.5
v -5 8 -0.5
v -5 9 -0.5
v -4 5 -0.5
v -4 7 -0.5
v -4 8 -0.5
v -4 9 -0.5
v -3 8 -0.5
v -3 9 -0.5
v -2 0 -0.5
v -2 7 -0.5
v -2 8 -0.5
v -2 9 -0.5
v 0 0 -0.5
v 0 7 -0.5
v 2 3 -0.5
v 2 7 -0.5
v 4 3 -0.5
v 4 7 -0.5
v 5 10 -0.5
v 5 11 -0.5
v 6 8 -0.5
v 6 9 -0.5
v 6 10 -0.5
v 6 11 -0.5
v 8 8 -0.5
v 8 9 -0.5
v -8 7 -1.5
v -8 10 -1.5
v -8 11 -1.5
v -7 8 -1.5
v -7 9 -1.5
v -7 10 -1.5
v -7 11 -1.5
v -6 8 -1.5
v -6 9 -1.5
v -5 8 -1.5
v -5 9 -1.5
v -4 8 -1.5
v -4 9 -1.5
v -3 8 -1.5
v -3 9 -1.5
v -2 8 -1.5
v -2 9 -1.5
v 6 7 -1.5
v 6 10 -1.5
v -2 0 0.5
v 0 0 0.5
v -2 0 -0.5
v 0 0 -0.5
v -8 3 0.5
v -6 3 0.5
v 2 3 0.5
v 4 3 0.5
v -8 3 -0.5
v -6 3 -0.5
v 2 3 -0.5
v 4 3 -0.5
v -6 5 0.5
v -4 5 0.5
v -6 5 -0.5
v -4 5 -0.5
v -8 7 1.5
v 6 7 1.5
v -8 7 0.5
v -6 7 0.5
v -5 7 0.5
v -4 7 0.5
v -2 7 0.5
v 0 7 0.5
v 2 7 0.5
v 4 7 0.5
v -8 7 -0.5
v -6 7 -0.5
v -5 7 -0.5
v -4 7 -0.5
v -2 7 -0.5
v 0 7 -0.5
v 2 7 -0.5
v 4 7 -0.5
v -8 7 -1.5
v 6 7 -1.5
v 6 8 0.5
v 8 8 0.5
v 6 8 -0.5
v 8 8 -0.5
v -7 9 1.5
v -6 9 1.5
v -5 9 1.5
v -4 9 1.5
v -3 9 1.5
v -2 9 1.5
v -7 9 0.5
v -6 9 0.5
v -5 9 0.5
v -4 9 0.5
v -3 9 0.5
v -2 9 0.5
v -7 9 -0.5
v -6 9 -0.5
v -5 9 -0.5
v -4 9 -0.5
v -3 9 -0.5
v -2 9 -0.5
v -7 9 -1.5
v -6 9 -1.5
v -5 9 -1.5
v -4 9 -1.5
v -3 9 -1.5
v -2 9 -1.5
v -6 6 0.5
v -5 6 0.5
v -6 6 -0.5
v -5 6 -0.5
v -7 8 1.5
v -6 8 1.5
v -5 8 1.5
v -4 8 1.5
v -3 8 1.5
v -2 8 1.5
v -7 8 0.5
v -6 8 0.5
v -5 8 0.5
v -4 8 0.5
v -3 8 0.5
v -2 8 0.5
v -7 8 -0.5
v -6 8 -0.5
v -5 8 -0.5
v -4 8 -0.5
v -3 8 -0.5
v -2 8 -0.5
v -7 8 -1.5
v -6 8 -1.5
v -5 8 -1.5
v -4 8 -1.5
v -3 8 -1.5
v -2 8 -1.5
v 6 9 0.5
v 8 9 0.5
v 6 9 -0.5
v 8 9 -0.5
v -7 10 1.5
v 6 10 1.5
v -8 10 0.5
v -7 10 0.5
v 5 10 0.5
v 6 10 0.5
v -8 10 -0.5
v -7 10 -0.5
v 5 10 -0.5
v 6 10 -0.5
v -7 10 -1.5
v 6 10 -1.5
v -8 11 1.5
v -7 11 1.5
v -8 11 0.5
v -7 11 0.5
v 5 11 0.5
v 6 11 0.5
v -8 11 -0.5
v -7 11 -0.5
v 5 11 -0.5
v 6 11 -0.5
v -8 11 -1.5
v -7 11 -1.5

# faces
f 4/2/1 2/2/1 1/2/1
f 5/2/1 2/2/1 4/2/1
f 7/1/1 4/1/1 3/1/1
f 7/1/1 6/1/1 5/1/1
f 7/1/1 5/1/1 4/1/1
f 8/1/1 6/1/1 7/1/1
f 9/1/1 6/1/1 8/1/1
f 10/1/1 6/1/1 9/1/1
f 11/2/1 8/2/1 7/2/1
f 12/2/1 8/2/1 11/2/1
f 13/2/1 10/2/1 9/2/1
f 14/2/1 10/2/1 13/2/1
f 19/1/1 16/1/1 15/1/1
f 20/1/1 16/1/1 19/1/1
f 21/1/1 18/1/1 17/1/1
f 22/1/1 18/1/1 21/1/1
f 25/2/1 24/2/1 23/2/1
f 26/2/1 24/2/1 25/2/1
f 31/1/1 28/1/1 27/1/1
f 32/1/1 28/1/1 31/1/1
f 33/1/1 30/1/1 29/1/1
f 34/1/1 30/1/1 33/1/1
f 37/2/1 36/2/1 35/2/1
f 38/2/1 36/2/1 37/2/1
f 43/1/1 40/1/1 39/1/1
f 44/1/1 40/1/1 43/1/1
f 45/1/1 42/1/1 41/1/1
f 46/1/1 42/1/1 45/1/1
f 49/2/1 48/2/1 47/2/1
f 50/2/1 48/2/1 49/2/1
f 53/2/1 52/2/1 51/2/1
f 54/2/1 52/2/1 53/2/1
f 55/1/2 56/1/2 59/1/2
f 59/1/2 56/1/2 60/1/2
f 57/1/2 58/1/2 61/1/2
f 61/1/2 58/1/2 62/1/2
f 63/2/2 64/2/2 67/2/2
f 67/2/2 64/2/2 68/2/2
f 65/2/2 66/2/2 69/2/2
f 69/2/2 66/2/2 70/2/2
f 71/2/2 72/2/2 73/2/2
f 73/2/2 72/2/2 74/2/2
f 75/2/2 76/2/2 77/2/2
f 77/2/2 76/2/2 78/2/2
f 79/1/2 80/1/2 83/1/2
f 83/1/2 80/1/2 84/1/2
f 81/1/2 82/1/2 85/1/2
f 85/1/2 82/1/2 86/1/2
f 87/2/2 88/2/2 89/2/2
f 89/2/2 88/2/2 90/2/2
f 91/1/2 92/1/2 95/1/2
f 95/1/2 92/1/2 96/1/2
f 93/1/2 94/1/2 97/1/2
f 97/1/2 94/1/2 98/1/2
f 99/2/2 100/2/2 101/2/2
f 101/2/2 100/2/2 102/2/2
f 103/2/2 104/2/2 105/2/2
f 105/2/2 104/2/2 106/2/2
f 107/1/2 108/1/2 109/1/2
f 109/1/2 108/1/2 110/1/2
f 107/1/2 109/1/2 111/1/2
f 110/1/2 108/1/2 112/1/2
f 107/1/2 111/1/2 113/1/2
f 111/1/2 112/1/2 113/1/2
f 113/1/2 112/1/2 114/1/2
f 112/1/2 108/1/2 115/1/2
f 114/1/2 112/1/2 115/1/2
f 115/1/2 108/1/2 116/1/2
f 114/2/2 115/2/2 117/2/2
f 117/2/2 115/2/2 118/2/2
f 119/2/2 120/2/2 121/2/2
f 121/2/2 120/2/2 122/2/2
f 126/1/3 124/1/3 123/1/3
f 127/1/3 124/1/3 126/1/3
f 128/2/3 125/2/3 124/2/3
f 128/1/3 124/1/3 127/1/3
f 129/2/3 125/2/3 128/2/3
f 130/1/3 126/1/3 123/1/3
f 131/1/3 128/1/3 127/1/3
f 132/1/3 130/1/3 123/1/3
f 132/1/3 131/1/3 130/1/3
f 133/1/3 128/1/3 131/1/3
f 133/1/3 131/1/3 132/1/3
f 134/1/3 132/1/3 123/1/3
f 135/1/3 128/1/3 133/1/3
f 136/1/3 134/1/3 123/1/3
f 136/1/3 135/1/3 134/1/3
f 137/1/3 128/1/3 135/1/3
f 137/1/3 135/1/3 136/1/3
f 138/1/3 136/1/3 123/1/3
f 139/1/3 128/1/3 137/1/3
f 140/1/3 138/1/3 123/1/3
f 140/1/3 139/1/3 138/1/3
f 141/1/3 128/1/3 139/1/3
f 141/1/3 139/1/3 140/1/3
f 146/2/3 143/2/3 142/2/3
f 147/2/3 143/2/3 146/2/3
f 148/2/3 143/2/3 147/2/3
f 149/2/3 143/2/3 148/2/3
f 150/1/3 145/1/3 144/1/3
f 151/1/3 145/1/3 150/1/3
f 152/2/3 148/2/3 147/2/3
f 156/2/3 152/2/3 147/2/3
f 156/2/3 153/2/3 152/2/3
f 157/2/3 153/2/3 156/2/3
f 158/1/3 155/1/3 154/1/3
f 159/1/3 155/1/3 158/1/3
f 164/1/3 161/1/3 160/1/3
f 165/1/3 161/1/3 164/1/3
f 166/2/3 163/2/3 162/2/3
f 167/2/3 163/2/3 166/2/3
f 170/2/3 169/2/3 168/2/3
f 171/2/3 169/2/3 170/2/3
f 176/2/3 173/2/3 172/2/3
f 177/2/3 173/2/3 176/2/3
f 178/2/3 175/2/3 174/2/3
f 179/2/3 175/2/3 178/2/3
f 182/2/3 181/2/3 180/2/3
f 183/2/3 181/2/3 182/2/3
f 184/2/4 185/2/4 186/2/4
f 186/2/4 185/2/4 187/2/4
f 188/2/4 189/2/4 192/2/4
f 192/2/4 189/2/4 193/2/4
f 193/2/4 189/2/4 194/2/4
f 194/2/4 189/2/4 195/2/4
f 190/1/4 191/1/4 196/1/4
f 196/1/4 191/1/4 197/1/4
f 193/2/4 194/2/4 198/2/4
f 193/2/4 198/2/4 202/2/4
f 198/2/4 199/2/4 202/2/4
f 202/2/4 199/2/4 203/2/4
f 200/1/4 201/1/4 204/1/4
f 204/1/4 201/1/4 205/1/4
f 206/1/4 207/1/4 210/1/4
f 210/1/4 207/1/4 211/1/4
f 208/2/4 209/2/4 212/2/4
f 212/2/4 209/2/4 213/2/4
f 214/2/4 215/2/4 216/2/4
f 216/2/4 215/2/4 217/2/4
f 218/2/4 219/2/4 222/2/4
f 222/2/4 219/2/4 223/2/4
f 220/2/4 221/2/4 224/2/4
f 224/2/4 221/2/4 225/2/4
f 226/1/4 227/1/4 229/1/4
f 229/1/4 227/1/4 230/1/4
f 227/2/4 228/2/4 231/2/4
f 230/1/4 227/1/4 231/1/4
f 231/2/4 228/2/4 232/2/4
f 226/1/4 229/1/4 233/1/4
f 230/1/4 231/1/4 234/1/4
f 226/1/4 233/1/4 235/1/4
f 233/1/4 234/1/4 235/1/4
f 234/1/4 231/1/4 236/1/4
f 235/1/4 234/1/4 236/1/4
f 226/1/4 235/1/4 237/1/4
f 236/1/4 231/1/4 238/1/4
f 226/1/4 237/1/4 239/1/4
f 237/1/4 238/1/4 239/1/4
f 238/1/4 231/1/4 240/1/4
f 239/1/4 238/1/4 240/1/4
f 226/1/4 239/1/4 241/1/4
f 240/1/4 231/1/4 242/1/4
f 226/1/4 241/1/4 243/1/4
f 241/1/4 242/1/4 243/1/4
f 242/1/4 231/1/4 244/1/4
f 243/1/4 242/1/4 244/1/4
f 247/2/5 246/2/5 245/2/5
f 248/2/5 246/2/5 247/2/5
f 253/2/5 250/2/5 249/2/5
f 254/2/5 250/2/5 253/2/5
f 255/2/5 252/2/5 251/2/5
f 256/2/5 252/2/5 255/2/5
f 259/2/5 258/2/5 257/2/5
f 260/2/5 258/2/5 259/2/5
f 263/1/5 262/1/5 261/1/5
f 264/1/5 262/1/5 263/1/5
f 265/1/5 262/1/5 264/1/5
f 266/1/5 262/1/5 265/1/5
f 267/1/5 262/1/5 266/1/5
f 268/1/5 262/1/5 267/1/5
f 269/1/5 262/1/5 268/1/5
f 270/1/5 262/1/5 269/1/5
f 272/1/5 265/1/5 264/1/5
f 273/1/5 265/1/5 272/1/5
f 274/1/5 267/1/5 266/1/5
f 275/1/5 267/1/5 274/1/5
f 276/1/5 269/1/5 268/1/5
f 277/1/5 269/1/5 276/1/5
f 278/1/5 262/1/5 270/1/5
f 279/1/5 277/1/5 276/1/5
f 279/1/5 278/1/5 277/1/5
f 279/1/5 273/1/5 272/1/5
f 279/1/5 275/1/5 274/1/5
f 279/1/5 276/1/5 275/1/5
f 279/1/5 272/1/5 271/1/5
f 279/1/5 274/1/5 273/1/5
f 280/1/5 262/1/5 278/1/5
f 280/1/5 278/1/5 279/1/5
f 283/2/5 282/2/5 281/2/5
f 284/2/5 282/2/5 283/2/5
f 291/1/5 286/1/5 285/1/5
f 292/1/5 286/1/5 291/1/5
f 293/1/5 288/1/5 287/1/5
f 294/1/5 288/1/5 293/1/5
f 295/1/5 290/1/5 289/1/5
f 296/1/5 290/1/5 295/1/5
f 303/1/5 298/1/5 297/1/5
f 304/1/5 298/1/5 303/1/5
f 305/1/5 300/1/5 299/1/5
f 306/1/5 300/1/5 305/1/5
f 307/1/5 302/1/5 301/1/5
f 308/1/5 302/1/5 307/1/5
f 309/2/6 310/2/6 311/2/6
f 311/2/6 310/2/6 312/2/6
f 313/1/6 314/1/6 319/1/6
f 319/1/6 314/1/6 320/1/6
f 315/1/6 316/1/6 321/1/6
f 321/1/6 316/1/6 322/1/6
f 317/1/6 318/1/6 323/1/6
f 323/1/6 318/1/6 324/1/6
f 325/1/6 326/1/6 331/1/6
f 331/1/6 326/1/6 332/1/6
f 327/1/6 328/1/6 333/1/6
f 333/1/6 328/1/6 334/1/6
f 329/1/6 330/1/6 335/1/6
f 335/1/6 330/1/6 336/1/6
f 337/2/6 338/2/6 339/2/6
f 339/2/6 338/2/6 340/2/6
f 341/1/6 342/1/6 344/1/6
f 344/1/6 342/1/6 345/1/6
f 345/1/6 342/1/6 346/1/6
f 343/1/6 344/1/6 347/1/6
f 344/1/6 345/1/6 347/1/6
f 347/1/6 345/1/6 348/1/6
f 348/1/6 345/1/6 349/1/6
f 349/1/6 350/1/6 351/1/6
f 348/1/6 349/1/6 351/1/6
f 351/1/6 350/1/6 352/1/6
f 353/2/6 354/2/6 355/2/6
f 355/2/6 354/2/6 356/2/6
f 357/2/6 358/2/6 361/2/6
f 361/2/6 358/2/6 362/2/6
f 359/2/6 360/2/6 363/2/6
f 363/2/6 360/2/6 364/2/6
